<svg xmlns="http://www.w3.org/2000/svg" width="512" height="512" viewBox="0 0 512 512">
<rect width="512" height="512" fill="white"/>
<path d="M0.8 78.9 Q1.1 77.3 206.8 24.6" stroke="rgb(73,151,208)" stroke-width="181.75" stroke-linecap="round" fill="none"/>
<path d="M130.0 202.3 Q211.9 185.5 248.7 26.5" stroke="rgb(104,180,225)" stroke-width="156.15" stroke-linecap="round" fill="none"/>
<path d="M325.6 288.6 Q315.7 0.8 334.0 58.2" stroke="rgb(185,216,230)" stroke-width="142.01" stroke-linecap="round" fill="none"/>
<path d="M415.3 149.9 Q502.5 96.6 492.0 8.1" stroke="rgb(152,208,229)" stroke-width="162.87" stroke-linecap="round" fill="none"/>
<path d="M-0.2 258.7 Q60.2 160.4 167.6 287.8" stroke="rgb(174,199,203)" stroke-width="143.12" stroke-linecap="round" fill="none"/>
<path d="M123.7 361.8 Q138.8 171.4 289.0 83.8" stroke="rgb(129,189,220)" stroke-width="5.38" stroke-linecap="round" fill="none"/>
<path d="M153.5 224.3 Q322.1 348.2 373.1 70.7" stroke="rgb(204,218,216)" stroke-width="105.33" stroke-linecap="round" fill="none"/>
<path d="M453.4 178.8 Q488.0 166.9 477.7 292.8" stroke="rgb(146,191,211)" stroke-width="78.18" stroke-linecap="round" fill="none"/>
<path d="M0.2 305.2 Q123.1 234.2 31.0 391.0" stroke="rgb(114,165,194)" stroke-width="109.14" stroke-linecap="round" fill="none"/>
<path d="M162.5 304.4 Q110.9 309.6 429.4 315.0" stroke="rgb(139,138,150)" stroke-width="110.35" stroke-linecap="round" fill="none"/>
<path d="M130.4 358.6 Q163.2 416.6 439.4 350.7" stroke="rgb(79,136,172)" stroke-width="164.56" stroke-linecap="round" fill="none"/>
<path d="M352.9 351.3 Q267.1 480.5 430.5 512.0" stroke="rgb(35,136,185)" stroke-width="98.56" stroke-linecap="round" fill="none"/>
<path d="M-0.6 438.0 Q0.4 309.9 57.2 418.1" stroke="rgb(74,139,182)" stroke-width="177.22" stroke-linecap="round" fill="none"/>
<path d="M-1.4 442.5 Q332.6 477.3 270.4 445.8" stroke="rgb(6,62,115)" stroke-width="189.79" stroke-linecap="round" fill="none"/>
<path d="M160.6 457.1 Q496.5 423.6 488.8 464.3" stroke="rgb(4,62,115)" stroke-width="153.57" stroke-linecap="round" fill="none"/>
<path d="M487.9 492.4 Q424.4 510.7 510.9 370.3" stroke="rgb(1,73,147)" stroke-width="84.60" stroke-linecap="round" fill="none"/>
<path d="M21.5 66.6 Q107.3 8.7 85.0 28.0" stroke="rgb(148,181,198)" stroke-width="32.95" stroke-linecap="round" fill="none"/>
<path d="M91.5 27.6 Q77.1 97.2 132.6 83.2" stroke="rgb(56,145,213)" stroke-width="85.60" stroke-linecap="round" fill="none"/>
<path d="M123.5 74.5 Q220.6 12.5 206.2 1.3" stroke="rgb(123,181,212)" stroke-width="25.71" stroke-linecap="round" fill="none"/>
<path d="M196.2 66.1 Q286.6 130.5 371.8 69.2" stroke="rgb(193,215,220)" stroke-width="13.94" stroke-linecap="round" fill="none"/>
<path d="M257.7 66.1 Q430.8 122.0 332.1 31.1" stroke="rgb(230,227,221)" stroke-width="16.57" stroke-linecap="round" fill="none"/>
<path d="M329.9 107.1 Q448.6 2.1 488.3 -0.4" stroke="rgb(210,223,228)" stroke-width="22.92" stroke-linecap="round" fill="none"/>
<path d="M445.8 11.3 Q479.2 1.6 478.7 49.0" stroke="rgb(121,202,229)" stroke-width="28.17" stroke-linecap="round" fill="none"/>
<path d="M14.1 96.3 Q0.1 175.1 71.0 161.1" stroke="rgb(108,157,193)" stroke-width="62.00" stroke-linecap="round" fill="none"/>
<path d="M117.8 86.4 Q196.4 69.0 246.7 79.8" stroke="rgb(33,142,230)" stroke-width="4.50" stroke-linecap="round" fill="none"/>
<path d="M123.5 143.3 Q220.4 174.2 244.8 7.4" stroke="rgb(95,179,229)" stroke-width="23.75" stroke-linecap="round" fill="none"/>
<path d="M220.7 140.1 Q151.5 108.1 293.8 56.4" stroke="rgb(112,186,231)" stroke-width="12.59" stroke-linecap="round" fill="none"/>
<path d="M313.3 85.9 Q348.8 192.6 346.7 168.2" stroke="rgb(193,221,234)" stroke-width="60.11" stroke-linecap="round" fill="none"/>
<path d="M399.9 123.1 Q400.3 117.5 467.7 85.1" stroke="rgb(206,211,219)" stroke-width="51.10" stroke-linecap="round" fill="none"/>
<path d="M434.0 109.7 Q451.8 70.8 511.1 104.2" stroke="rgb(128,203,230)" stroke-width="34.26" stroke-linecap="round" fill="none"/>
<path d="M0.6 152.3 Q96.2 157.4 111.6 153.0" stroke="rgb(119,186,221)" stroke-width="22.08" stroke-linecap="round" fill="none"/>
<path d="M42.5 150.8 Q89.2 185.9 197.7 194.2" stroke="rgb(188,208,204)" stroke-width="31.31" stroke-linecap="round" fill="none"/>
<path d="M196.1 208.1 Q62.1 148.3 203.7 251.3" stroke="rgb(213,207,184)" stroke-width="21.74" stroke-linecap="round" fill="none"/>
<path d="M138.5 140.9 Q220.9 246.5 218.1 251.9" stroke="rgb(133,192,223)" stroke-width="20.20" stroke-linecap="round" fill="none"/>
<path d="M277.0 214.0 Q302.7 180.5 329.4 193.6" stroke="rgb(214,223,204)" stroke-width="52.65" stroke-linecap="round" fill="none"/>
<path d="M394.5 174.4 Q451.4 140.9 494.6 179.6" stroke="rgb(228,224,209)" stroke-width="29.66" stroke-linecap="round" fill="none"/>
<path d="M465.2 174.7 Q351.0 170.3 471.9 151.5" stroke="rgb(119,195,226)" stroke-width="23.40" stroke-linecap="round" fill="none"/>
<path d="M10.7 330.4 Q81.5 284.3 31.6 272.3" stroke="rgb(114,171,202)" stroke-width="15.12" stroke-linecap="round" fill="none"/>
<path d="M128.6 285.8 Q-3.0 207.7 173.2 259.0" stroke="rgb(174,161,157)" stroke-width="4.12" stroke-linecap="round" fill="none"/>
<path d="M102.4 290.0 Q194.1 324.3 266.8 308.3" stroke="rgb(170,176,181)" stroke-width="4.22" stroke-linecap="round" fill="none"/>
<path d="M228.0 252.2 Q245.8 230.3 237.3 395.6" stroke="rgb(167,193,199)" stroke-width="4.10" stroke-linecap="round" fill="none"/>
<path d="M237.0 324.6 Q416.7 280.1 411.9 293.1" stroke="rgb(212,134,161)" stroke-width="5.67" stroke-linecap="round" fill="none"/>
<path d="M444.1 233.4 Q501.9 214.3 482.8 291.0" stroke="rgb(137,171,192)" stroke-width="26.68" stroke-linecap="round" fill="none"/>
<path d="M27.5 347.6 Q25.0 286.8 54.0 315.1" stroke="rgb(23,112,166)" stroke-width="55.99" stroke-linecap="round" fill="none"/>
<path d="M175.9 303.4 Q238.2 318.0 209.2 379.5" stroke="rgb(112,109,121)" stroke-width="56.06" stroke-linecap="round" fill="none"/>
<path d="M228.5 292.0 Q249.7 350.6 236.5 335.8" stroke="rgb(118,131,147)" stroke-width="51.79" stroke-linecap="round" fill="none"/>
<path d="M200.5 319.2 Q407.4 325.0 396.9 321.9" stroke="rgb(50,139,186)" stroke-width="37.60" stroke-linecap="round" fill="none"/>
<path d="M258.3 336.8 Q427.7 339.8 404.2 420.8" stroke="rgb(27,136,180)" stroke-width="24.15" stroke-linecap="round" fill="none"/>
<path d="M466.3 304.0 Q510.6 317.6 490.7 301.8" stroke="rgb(105,136,167)" stroke-width="70.96" stroke-linecap="round" fill="none"/>
<path d="M6.7 365.6 Q129.4 389.7 100.5 382.8" stroke="rgb(13,80,136)" stroke-width="37.76" stroke-linecap="round" fill="none"/>
<path d="M102.7 391.5 Q182.0 346.1 185.3 419.8" stroke="rgb(34,99,131)" stroke-width="33.53" stroke-linecap="round" fill="none"/>
<path d="M118.2 455.9 Q283.9 375.0 164.3 360.8" stroke="rgb(23,81,112)" stroke-width="44.52" stroke-linecap="round" fill="none"/>
<path d="M95.8 411.8 Q308.2 416.3 424.8 390.5" stroke="rgb(2,32,100)" stroke-width="50.95" stroke-linecap="round" fill="none"/>
<path d="M210.8 369.7 Q329.5 366.1 454.8 374.5" stroke="rgb(22,90,120)" stroke-width="17.44" stroke-linecap="round" fill="none"/>
<path d="M312.2 390.3 Q342.1 354.3 492.1 366.6" stroke="rgb(0,76,133)" stroke-width="14.40" stroke-linecap="round" fill="none"/>
<path d="M351.2 359.9 Q511.0 352.4 491.1 447.8" stroke="rgb(14,99,161)" stroke-width="32.94" stroke-linecap="round" fill="none"/>
<path d="M28.0 442.0 Q7.6 511.0 50.3 510.6" stroke="rgb(3,52,104)" stroke-width="57.70" stroke-linecap="round" fill="none"/>
<path d="M127.6 384.8 Q200.2 504.1 190.3 509.9" stroke="rgb(8,66,113)" stroke-width="45.96" stroke-linecap="round" fill="none"/>
<path d="M145.3 476.2 Q183.5 465.7 447.5 473.9" stroke="rgb(1,60,113)" stroke-width="76.01" stroke-linecap="round" fill="none"/>
<path d="M192.8 484.2 Q326.6 475.3 297.7 504.2" stroke="rgb(2,50,99)" stroke-width="16.08" stroke-linecap="round" fill="none"/>
<path d="M345.7 433.9 Q412.4 389.2 452.2 435.3" stroke="rgb(1,81,141)" stroke-width="43.79" stroke-linecap="round" fill="none"/>
<path d="M385.2 469.6 Q335.6 462.7 432.3 448.3" stroke="rgb(0,55,114)" stroke-width="74.69" stroke-linecap="round" fill="none"/>
<path d="M468.4 494.7 Q306.6 414.8 507.3 436.7" stroke="rgb(0,67,139)" stroke-width="35.07" stroke-linecap="round" fill="none"/>
<path d="M42.1 20.8 Q32.2 57.7 44.9 8.6" stroke="rgb(83,147,206)" stroke-width="25.55" stroke-linecap="round" fill="none"/>
<path d="M54.2 2.2 Q153.7 1.1 87.3 27.1" stroke="rgb(43,136,212)" stroke-width="24.42" stroke-linecap="round" fill="none"/>
<path d="M131.4 23.8 Q137.1 8.8 168.7 44.4" stroke="rgb(76,151,205)" stroke-width="15.59" stroke-linecap="round" fill="none"/>
<path d="M171.8 1.3 Q152.0 31.4 196.3 14.6" stroke="rgb(65,151,211)" stroke-width="22.30" stroke-linecap="round" fill="none"/>
<path d="M235.7 30.5 Q208.4 60.9 292.4 2.0" stroke="rgb(82,170,226)" stroke-width="15.44" stroke-linecap="round" fill="none"/>
<path d="M278.7 56.2 Q234.8 1.4 286.5 12.4" stroke="rgb(182,211,222)" stroke-width="18.42" stroke-linecap="round" fill="none"/>
<path d="M347.2 16.7 Q327.3 21.5 376.4 1.4" stroke="rgb(129,200,234)" stroke-width="24.48" stroke-linecap="round" fill="none"/>
<path d="M345.4 49.5 Q370.2 2.5 422.9 16.0" stroke="rgb(228,227,222)" stroke-width="17.28" stroke-linecap="round" fill="none"/>
<path d="M423.9 2.4 Q392.0 27.0 464.6 59.7" stroke="rgb(238,223,220)" stroke-width="4.11" stroke-linecap="round" fill="none"/>
<path d="M431.1 1.6 Q461.8 0.9 458.1 58.1" stroke="rgb(108,200,229)" stroke-width="4.13" stroke-linecap="round" fill="none"/>
<path d="M14.2 92.4 Q97.1 154.4 21.6 59.8" stroke="rgb(143,190,196)" stroke-width="7.36" stroke-linecap="round" fill="none"/>
<path d="M84.6 100.3 Q-1.7 43.9 106.5 96.4" stroke="rgb(37,141,219)" stroke-width="9.57" stroke-linecap="round" fill="none"/>
<path d="M125.0 110.5 Q137.3 114.0 153.8 45.9" stroke="rgb(140,190,214)" stroke-width="8.58" stroke-linecap="round" fill="none"/>
<path d="M172.0 67.5 Q199.8 87.7 181.1 55.5" stroke="rgb(57,161,232)" stroke-width="4.09" stroke-linecap="round" fill="none"/>
<path d="M223.9 103.6 Q205.4 83.1 247.5 105.7" stroke="rgb(84,176,234)" stroke-width="13.55" stroke-linecap="round" fill="none"/>
<path d="M252.1 93.4 Q329.9 94.1 275.5 46.8" stroke="rgb(190,210,218)" stroke-width="12.16" stroke-linecap="round" fill="none"/>
<path d="M250.6 50.6 Q380.3 129.8 331.6 103.7" stroke="rgb(183,220,234)" stroke-width="4.20" stroke-linecap="round" fill="none"/>
<path d="M350.3 67.3 Q434.2 88.1 399.5 68.9" stroke="rgb(225,216,209)" stroke-width="4.10" stroke-linecap="round" fill="none"/>
<path d="M458.4 96.6 Q337.8 144.3 464.3 101.8" stroke="rgb(97,194,229)" stroke-width="4.13" stroke-linecap="round" fill="none"/>
<path d="M498.6 81.8 Q467.5 39.9 501.0 43.0" stroke="rgb(191,221,230)" stroke-width="8.93" stroke-linecap="round" fill="none"/>
<path d="M1.4 168.8 Q11.3 121.8 43.1 87.0" stroke="rgb(9,64,203)" stroke-width="4.58" stroke-linecap="round" fill="none"/>
<path d="M27.9 166.5 Q91.1 83.6 74.6 119.6" stroke="rgb(139,194,214)" stroke-width="8.85" stroke-linecap="round" fill="none"/>
<path d="M62.6 131.2 Q158.2 124.1 127.6 113.3" stroke="rgb(42,150,231)" stroke-width="6.76" stroke-linecap="round" fill="none"/>
<path d="M159.1 96.7 Q164.1 211.9 220.3 149.2" stroke="rgb(133,187,219)" stroke-width="8.71" stroke-linecap="round" fill="none"/>
<path d="M245.8 116.4 Q192.3 190.8 286.1 136.2" stroke="rgb(112,196,237)" stroke-width="18.48" stroke-linecap="round" fill="none"/>
<path d="M241.9 127.8 Q287.8 137.5 291.0 84.0" stroke="rgb(171,212,235)" stroke-width="10.40" stroke-linecap="round" fill="none"/>
<path d="M330.2 177.0 Q336.7 149.7 343.0 180.6" stroke="rgb(175,204,252)" stroke-width="8.04" stroke-linecap="round" fill="none"/>
<path d="M334.2 123.6 Q386.5 104.1 379.0 122.9" stroke="rgb(189,220,236)" stroke-width="23.48" stroke-linecap="round" fill="none"/>
<path d="M444.7 117.6 Q438.2 109.7 464.1 103.4" stroke="rgb(127,192,223)" stroke-width="11.21" stroke-linecap="round" fill="none"/>
<path d="M487.5 139.6 Q469.5 142.3 506.3 121.3" stroke="rgb(169,232,243)" stroke-width="4.09" stroke-linecap="round" fill="none"/>
<path d="M38.0 158.7 Q118.4 218.7 45.4 176.5" stroke="rgb(184,205,205)" stroke-width="18.16" stroke-linecap="round" fill="none"/>
<path d="M107.5 187.0 Q122.1 178.8 148.4 182.0" stroke="rgb(197,210,187)" stroke-width="9.19" stroke-linecap="round" fill="none"/>
<path d="M204.1 171.3 Q176.7 157.5 215.8 163.5" stroke="rgb(210,224,218)" stroke-width="4.17" stroke-linecap="round" fill="none"/>
<path d="M166.8 164.9 Q204.5 165.4 273.2 151.3" stroke="rgb(234,229,206)" stroke-width="8.52" stroke-linecap="round" fill="none"/>
<path d="M253.2 207.5 Q277.1 196.8 261.3 168.3" stroke="rgb(229,229,205)" stroke-width="29.77" stroke-linecap="round" fill="none"/>
<path d="M313.9 163.8 Q322.6 182.8 406.7 188.5" stroke="rgb(189,220,215)" stroke-width="9.83" stroke-linecap="round" fill="none"/>
<path d="M399.4 176.1 Q444.9 181.0 405.0 213.5" stroke="rgb(114,186,224)" stroke-width="4.06" stroke-linecap="round" fill="none"/>
<path d="M446.8 212.8 Q355.0 152.1 477.9 179.2" stroke="rgb(244,231,195)" stroke-width="4.63" stroke-linecap="round" fill="none"/>
<path d="M456.8 178.6 Q511.4 174.5 510.2 222.5" stroke="rgb(121,191,227)" stroke-width="9.52" stroke-linecap="round" fill="none"/>
<path d="M0.1 238.6 Q37.4 213.5 40.4 212.8" stroke="rgb(211,223,198)" stroke-width="5.80" stroke-linecap="round" fill="none"/>
<path d="M36.0 223.1 Q82.6 204.9 86.1 269.2" stroke="rgb(141,177,195)" stroke-width="13.47" stroke-linecap="round" fill="none"/>
<path d="M146.2 247.4 Q147.9 231.4 153.3 227.9" stroke="rgb(153,175,206)" stroke-width="4.09" stroke-linecap="round" fill="none"/>
<path d="M136.5 199.2 Q136.7 209.6 229.0 199.8" stroke="rgb(109,198,235)" stroke-width="4.11" stroke-linecap="round" fill="none"/>
<path d="M359.1 237.2 Q201.3 252.4 408.8 239.6" stroke="rgb(202,190,171)" stroke-width="13.72" stroke-linecap="round" fill="none"/>
<path d="M355.4 240.8 Q425.5 235.6 419.2 243.7" stroke="rgb(176,186,174)" stroke-width="14.77" stroke-linecap="round" fill="none"/>
<path d="M447.3 249.5 Q405.7 224.6 469.8 226.9" stroke="rgb(129,167,192)" stroke-width="23.26" stroke-linecap="round" fill="none"/>
<path d="M499.7 254.8 Q509.0 180.7 505.1 204.3" stroke="rgb(198,219,223)" stroke-width="8.12" stroke-linecap="round" fill="none"/>
<path d="M4.2 268.7 Q40.3 294.6 32.7 284.1" stroke="rgb(74,193,235)" stroke-width="4.05" stroke-linecap="round" fill="none"/>
<path d="M83.5 269.5 Q141.7 250.2 94.7 292.3" stroke="rgb(136,109,112)" stroke-width="4.10" stroke-linecap="round" fill="none"/>
<path d="M117.6 279.2 Q75.0 247.3 122.1 290.7" stroke="rgb(99,113,131)" stroke-width="5.92" stroke-linecap="round" fill="none"/>
<path d="M139.1 266.1 Q187.6 259.9 219.5 266.4" stroke="rgb(207,154,150)" stroke-width="4.11" stroke-linecap="round" fill="none"/>
<path d="M234.2 297.3 Q267.2 254.9 241.6 321.2" stroke="rgb(182,174,168)" stroke-width="4.11" stroke-linecap="round" fill="none"/>
<path d="M274.6 279.2 Q281.2 301.9 284.3 299.6" stroke="rgb(103,146,184)" stroke-width="7.27" stroke-linecap="round" fill="none"/>
<path d="M313.1 326.3 Q363.3 264.8 324.1 306.7" stroke="rgb(93,143,175)" stroke-width="8.91" stroke-linecap="round" fill="none"/>
<path d="M405.0 280.8 Q365.5 302.4 413.0 302.8" stroke="rgb(62,138,187)" stroke-width="18.42" stroke-linecap="round" fill="none"/>
<path d="M412.4 293.5 Q470.6 269.5 422.1 280.2" stroke="rgb(63,135,183)" stroke-width="22.60" stroke-linecap="round" fill="none"/>
<path d="M423.8 317.5 Q509.9 303.3 509.3 310.8" stroke="rgb(188,153,154)" stroke-width="24.91" stroke-linecap="round" fill="none"/>
<path d="M0.1 333.2 Q18.9 357.1 85.6 334.3" stroke="rgb(49,128,184)" stroke-width="4.10" stroke-linecap="round" fill="none"/>
<path d="M0.6 326.1 Q106.7 345.6 118.9 318.2" stroke="rgb(67,129,171)" stroke-width="4.21" stroke-linecap="round" fill="none"/>
<path d="M123.8 298.0 Q143.6 389.7 169.2 355.2" stroke="rgb(105,141,166)" stroke-width="7.15" stroke-linecap="round" fill="none"/>
<path d="M127.0 334.8 Q270.5 340.0 173.0 333.0" stroke="rgb(64,54,74)" stroke-width="4.08" stroke-linecap="round" fill="none"/>
<path d="M226.2 342.3 Q220.2 312.0 266.7 309.5" stroke="rgb(28,136,185)" stroke-width="16.74" stroke-linecap="round" fill="none"/>
<path d="M265.2 324.2 Q265.0 325.8 315.7 324.6" stroke="rgb(28,137,186)" stroke-width="32.35" stroke-linecap="round" fill="none"/>
<path d="M269.5 334.2 Q323.2 301.9 316.4 310.4" stroke="rgb(77,137,176)" stroke-width="21.67" stroke-linecap="round" fill="none"/>
<path d="M364.1 337.8 Q388.9 371.9 387.8 326.7" stroke="rgb(22,130,175)" stroke-width="4.79" stroke-linecap="round" fill="none"/>
<path d="M461.4 301.7 Q453.9 309.8 510.3 357.2" stroke="rgb(33,113,171)" stroke-width="4.50" stroke-linecap="round" fill="none"/>
<path d="M9.0 397.5 Q11.5 434.7 15.5 350.8" stroke="rgb(2,63,129)" stroke-width="5.01" stroke-linecap="round" fill="none"/>
<path d="M34.4 376.7 Q169.9 403.0 159.0 399.4" stroke="rgb(24,106,157)" stroke-width="7.44" stroke-linecap="round" fill="none"/>
<path d="M208.8 404.4 Q160.1 383.8 216.6 389.8" stroke="rgb(0,34,82)" stroke-width="7.36" stroke-linecap="round" fill="none"/>
<path d="M191.3 393.2 Q285.4 425.7 244.0 351.8" stroke="rgb(55,137,164)" stroke-width="6.91" stroke-linecap="round" fill="none"/>
<path d="M254.7 379.3 Q291.3 395.9 268.8 391.1" stroke="rgb(1,57,110)" stroke-width="20.92" stroke-linecap="round" fill="none"/>
<path d="M307.8 370.0 Q316.9 375.2 391.1 353.1" stroke="rgb(28,112,153)" stroke-width="4.10" stroke-linecap="round" fill="none"/>
<path d="M332.9 402.3 Q416.4 410.6 406.7 348.3" stroke="rgb(5,99,153)" stroke-width="4.09" stroke-linecap="round" fill="none"/>
<path d="M371.1 420.9 Q431.7 426.5 438.7 395.5" stroke="rgb(1,104,183)" stroke-width="4.09" stroke-linecap="round" fill="none"/>
<path d="M426.9 357.6 Q464.6 418.3 434.0 429.5" stroke="rgb(0,72,146)" stroke-width="13.13" stroke-linecap="round" fill="none"/>
<path d="M0.9 415.7 Q0.8 447.6 61.8 416.5" stroke="rgb(3,40,97)" stroke-width="22.24" stroke-linecap="round" fill="none"/>
<path d="M-0.2 449.5 Q56.0 449.6 159.7 464.5" stroke="rgb(2,32,89)" stroke-width="10.18" stroke-linecap="round" fill="none"/>
<path d="M135.2 411.1 Q84.1 417.5 161.2 442.3" stroke="rgb(8,60,108)" stroke-width="26.74" stroke-linecap="round" fill="none"/>
<path d="M83.5 406.3 Q226.1 412.2 192.4 406.7" stroke="rgb(0,13,70)" stroke-width="4.13" stroke-linecap="round" fill="none"/>
<path d="M222.1 392.9 Q212.7 431.8 314.3 427.7" stroke="rgb(0,39,102)" stroke-width="9.11" stroke-linecap="round" fill="none"/>
<path d="M217.5 481.8 Q249.0 507.4 250.5 424.5" stroke="rgb(1,73,130)" stroke-width="11.97" stroke-linecap="round" fill="none"/>
<path d="M309.7 456.9 Q415.8 421.1 328.8 436.9" stroke="rgb(2,53,102)" stroke-width="6.94" stroke-linecap="round" fill="none"/>
<path d="M363.2 444.7 Q466.5 409.7 366.4 446.1" stroke="rgb(0,55,119)" stroke-width="10.94" stroke-linecap="round" fill="none"/>
<path d="M399.7 449.0 Q442.4 445.3 440.3 458.8" stroke="rgb(0,70,138)" stroke-width="28.29" stroke-linecap="round" fill="none"/>
<path d="M496.6 448.9 Q463.6 449.1 501.5 447.0" stroke="rgb(0,74,154)" stroke-width="7.04" stroke-linecap="round" fill="none"/>
<path d="M2.7 505.0 Q14.1 480.3 22.0 495.7" stroke="rgb(3,78,133)" stroke-width="12.93" stroke-linecap="round" fill="none"/>
<path d="M42.7 466.8 Q79.9 419.4 55.1 489.9" stroke="rgb(1,58,118)" stroke-width="11.56" stroke-linecap="round" fill="none"/>
<path d="M77.9 476.4 Q143.2 510.4 117.3 501.9" stroke="rgb(3,56,106)" stroke-width="24.75" stroke-linecap="round" fill="none"/>
<path d="M159.4 471.9 Q185.4 478.3 198.7 476.1" stroke="rgb(1,110,165)" stroke-width="4.17" stroke-linecap="round" fill="none"/>
<path d="M222.2 488.1 Q205.4 466.0 241.4 510.8" stroke="rgb(1,56,103)" stroke-width="13.23" stroke-linecap="round" fill="none"/>
<path d="M271.4 500.5 Q242.0 468.3 329.1 481.1" stroke="rgb(0,42,96)" stroke-width="4.12" stroke-linecap="round" fill="none"/>
<path d="M265.0 486.7 Q353.9 495.7 420.5 495.7" stroke="rgb(0,45,93)" stroke-width="4.10" stroke-linecap="round" fill="none"/>
<path d="M380.4 460.3 Q431.8 502.3 416.6 442.4" stroke="rgb(0,52,119)" stroke-width="12.36" stroke-linecap="round" fill="none"/>
<path d="M412.2 503.9 Q506.4 501.7 417.6 475.5" stroke="rgb(0,63,119)" stroke-width="4.12" stroke-linecap="round" fill="none"/>
<path d="M450.4 501.5 Q428.3 496.7 497.3 505.1" stroke="rgb(0,82,160)" stroke-width="4.08" stroke-linecap="round" fill="none"/>
<path d="M5.3 5.1 Q5.9 -17.0 54.1 -7.3" stroke="rgb(44,131,211)" stroke-width="34.65" stroke-linecap="round" fill="none"/>
<path d="M130.9 3.1 Q157.6 1.8 168.1 20.2" stroke="rgb(107,170,200)" stroke-width="7.75" stroke-linecap="round" fill="none"/>
<path d="M299.5 24.2 Q335.5 24.4 335.1 22.6" stroke="rgb(204,220,223)" stroke-width="12.97" stroke-linecap="round" fill="none"/>
<path d="M445.7 9.8 Q477.4 -4.2 448.8 12.7" stroke="rgb(103,184,216)" stroke-width="6.64" stroke-linecap="round" fill="none"/>
<path d="M16.3 173.7 Q17.5 173.3 24.8 155.6" stroke="rgb(147,182,214)" stroke-width="7.46" stroke-linecap="round" fill="none"/>
<path d="M154.4 158.8 Q177.2 158.1 159.0 167.0" stroke="rgb(224,221,207)" stroke-width="4.31" stroke-linecap="round" fill="none"/>
<path d="M288.7 165.6 Q346.9 156.5 323.4 170.7" stroke="rgb(182,222,230)" stroke-width="10.44" stroke-linecap="round" fill="none"/>
<path d="M2.9 303.9 Q24.5 322.4 37.0 324.8" stroke="rgb(23,103,154)" stroke-width="9.66" stroke-linecap="round" fill="none"/>
<path d="M133.7 315.8 Q172.1 313.5 159.2 318.0" stroke="rgb(137,118,127)" stroke-width="7.31" stroke-linecap="round" fill="none"/>
<path d="M287.1 315.6 Q331.2 319.2 320.9 315.9" stroke="rgb(56,134,175)" stroke-width="10.70" stroke-linecap="round" fill="none"/>
<path d="M420.8 303.4 Q471.3 306.5 457.6 306.9" stroke="rgb(160,151,164)" stroke-width="2.09" stroke-linecap="round" fill="none"/>
<path d="M-5.6 465.3 Q28.2 465.5 27.4 468.3" stroke="rgb(4,43,84)" stroke-width="11.90" stroke-linecap="round" fill="none"/>
<path d="M158.1 456.3 Q130.1 456.8 200.0 455.8" stroke="rgb(0,9,85)" stroke-width="2.11" stroke-linecap="round" fill="none"/>
<path d="M275.6 450.6 Q347.0 435.8 308.8 464.8" stroke="rgb(0,82,145)" stroke-width="2.06" stroke-linecap="round" fill="none"/>
<path d="M429.7 446.9 Q472.8 451.5 469.8 451.4" stroke="rgb(0,64,133)" stroke-width="30.83" stroke-linecap="round" fill="none"/>
<path d="M23.7 26.4 Q88.8 -7.7 69.3 -13.0" stroke="rgb(123,168,197)" stroke-width="13.97" stroke-linecap="round" fill="none"/>
<path d="M187.9 5.0 Q237.8 -4.2 206.0 33.5" stroke="rgb(91,171,216)" stroke-width="7.28" stroke-linecap="round" fill="none"/>
<path d="M343.8 29.2 Q317.8 36.5 358.7 22.3" stroke="rgb(155,209,236)" stroke-width="10.71" stroke-linecap="round" fill="none"/>
<path d="M485.3 24.7 Q490.0 51.8 500.1 22.1" stroke="rgb(174,220,239)" stroke-width="6.57" stroke-linecap="round" fill="none"/>
<path d="M27.8 170.6 Q90.3 168.4 63.3 181.5" stroke="rgb(172,196,207)" stroke-width="13.25" stroke-linecap="round" fill="none"/>
<path d="M196.5 158.5 Q217.2 137.5 200.5 179.7" stroke="rgb(205,217,211)" stroke-width="9.08" stroke-linecap="round" fill="none"/>
<path d="M311.0 131.4 Q347.8 159.0 382.3 152.2" stroke="rgb(215,228,234)" stroke-width="11.63" stroke-linecap="round" fill="none"/>
<path d="M494.0 133.5 Q464.3 168.5 505.7 185.5" stroke="rgb(138,201,228)" stroke-width="6.05" stroke-linecap="round" fill="none"/>
<path d="M33.1 324.9 Q72.3 341.1 54.6 291.1" stroke="rgb(68,142,188)" stroke-width="6.22" stroke-linecap="round" fill="none"/>
<path d="M213.1 304.1 Q165.4 342.0 233.8 334.3" stroke="rgb(85,127,158)" stroke-width="2.91" stroke-linecap="round" fill="none"/>
<path d="M311.2 320.9 Q383.1 321.0 341.6 326.8" stroke="rgb(104,138,181)" stroke-width="2.92" stroke-linecap="round" fill="none"/>
<path d="M62.5 458.1 Q18.3 471.2 73.1 471.6" stroke="rgb(2,45,103)" stroke-width="7.20" stroke-linecap="round" fill="none"/>
<path d="M167.9 460.8 Q195.4 460.8 220.6 463.1" stroke="rgb(1,93,142)" stroke-width="2.12" stroke-linecap="round" fill="none"/>
<path d="M329.8 455.2 Q383.6 463.8 383.5 458.0" stroke="rgb(1,42,84)" stroke-width="6.30" stroke-linecap="round" fill="none"/>
<path d="M459.6 446.1 Q527.4 450.7 529.2 445.9" stroke="rgb(0,56,121)" stroke-width="4.25" stroke-linecap="round" fill="none"/>
<path d="M227.9 24.5 Q221.4 2.9 233.5 13.8" stroke="rgb(127,193,223)" stroke-width="13.65" stroke-linecap="round" fill="none"/>
<path d="M364.1 35.3 Q374.9 31.2 386.2 15.7" stroke="rgb(205,226,231)" stroke-width="17.28" stroke-linecap="round" fill="none"/>
<path d="M90.0 161.0 Q93.1 144.6 124.8 163.3" stroke="rgb(121,199,226)" stroke-width="14.98" stroke-linecap="round" fill="none"/>
<path d="M250.4 157.6 Q204.2 156.0 253.6 154.1" stroke="rgb(176,219,229)" stroke-width="14.45" stroke-linecap="round" fill="none"/>
<path d="M368.2 162.6 Q398.4 162.0 401.9 165.1" stroke="rgb(240,230,221)" stroke-width="9.52" stroke-linecap="round" fill="none"/>
<path d="M99.2 291.4 Q66.2 309.9 127.1 318.6" stroke="rgb(137,155,169)" stroke-width="14.82" stroke-linecap="round" fill="none"/>
<path d="M218.4 276.4 Q211.6 317.9 271.7 295.2" stroke="rgb(60,145,194)" stroke-width="3.54" stroke-linecap="round" fill="none"/>
<path d="M67.9 468.7 Q126.9 477.8 111.5 438.9" stroke="rgb(1,64,131)" stroke-width="2.07" stroke-linecap="round" fill="none"/>
<path d="M226.4 454.2 Q233.6 451.6 273.8 454.9" stroke="rgb(0,72,123)" stroke-width="9.94" stroke-linecap="round" fill="none"/>
<path d="M105.9 38.7 Q124.2 27.0 152.2 10.8" stroke="rgb(75,153,207)" stroke-width="9.23" stroke-linecap="round" fill="none"/>
<path d="M275.0 37.2 Q307.4 -8.2 278.0 15.9" stroke="rgb(138,194,224)" stroke-width="7.52" stroke-linecap="round" fill="none"/>
<path d="M428.5 42.8 Q404.1 10.5 438.3 21.4" stroke="rgb(161,216,237)" stroke-width="6.13" stroke-linecap="round" fill="none"/>
<path d="M116.1 179.4 Q123.6 180.8 147.5 145.5" stroke="rgb(145,193,213)" stroke-width="14.17" stroke-linecap="round" fill="none"/>
<path d="M246.9 165.1 Q264.9 155.0 269.2 169.3" stroke="rgb(204,225,217)" stroke-width="9.73" stroke-linecap="round" fill="none"/>
<path d="M393.3 153.6 Q430.6 143.2 410.0 174.4" stroke="rgb(115,203,233)" stroke-width="2.07" stroke-linecap="round" fill="none"/>
<path d="M124.9 294.6 Q91.0 297.9 143.0 305.1" stroke="rgb(115,107,118)" stroke-width="11.23" stroke-linecap="round" fill="none"/>
<path d="M247.1 294.7 Q299.3 336.9 285.0 310.0" stroke="rgb(108,144,172)" stroke-width="6.44" stroke-linecap="round" fill="none"/>
<path d="M384.5 313.1 Q456.0 311.9 453.9 311.7" stroke="rgb(112,131,174)" stroke-width="2.07" stroke-linecap="round" fill="none"/>
<path d="M109.5 444.6 Q164.4 476.1 111.9 464.9" stroke="rgb(1,41,94)" stroke-width="7.15" stroke-linecap="round" fill="none"/>
<path d="M238.9 470.3 Q310.1 468.9 275.0 448.5" stroke="rgb(1,61,113)" stroke-width="10.37" stroke-linecap="round" fill="none"/>
<path d="M418.8 454.6 Q389.7 454.0 456.1 449.1" stroke="rgb(0,58,127)" stroke-width="22.46" stroke-linecap="round" fill="none"/>
<path d="M25.6 61.6 Q48.7 36.8 31.7 70.7" stroke="rgb(120,178,202)" stroke-width="10.57" stroke-linecap="round" fill="none"/>
<path d="M145.3 57.8 Q133.2 53.5 175.1 58.4" stroke="rgb(137,191,215)" stroke-width="7.88" stroke-linecap="round" fill="none"/>
<path d="M296.3 20.6 Q277.6 60.5 335.4 51.3" stroke="rgb(217,222,218)" stroke-width="11.49" stroke-linecap="round" fill="none"/>
<path d="M431.5 44.5 Q458.1 61.8 476.9 58.3" stroke="rgb(112,205,234)" stroke-width="10.74" stroke-linecap="round" fill="none"/>
<path d="M13.6 200.7 Q30.8 199.0 23.2 231.1" stroke="rgb(197,203,194)" stroke-width="10.53" stroke-linecap="round" fill="none"/>
<path d="M160.7 196.9 Q142.3 215.4 172.8 207.6" stroke="rgb(138,198,225)" stroke-width="16.36" stroke-linecap="round" fill="none"/>
<path d="M302.3 196.2 Q341.6 188.9 308.1 197.8" stroke="rgb(234,228,200)" stroke-width="18.71" stroke-linecap="round" fill="none"/>
<path d="M457.8 196.0 Q430.4 203.1 461.0 205.0" stroke="rgb(114,184,221)" stroke-width="7.95" stroke-linecap="round" fill="none"/>
<path d="M-4.3 351.8 Q25.0 350.5 24.7 356.8" stroke="rgb(32,92,142)" stroke-width="20.42" stroke-linecap="round" fill="none"/>
<path d="M314.9 350.5 Q274.3 359.7 321.8 367.6" stroke="rgb(49,94,139)" stroke-width="3.32" stroke-linecap="round" fill="none"/>
<path d="M444.4 336.1 Q421.0 371.5 476.0 352.0" stroke="rgb(14,103,168)" stroke-width="5.43" stroke-linecap="round" fill="none"/>
<path d="M8.5 479.1 Q50.4 488.1 11.7 503.0" stroke="rgb(2,70,121)" stroke-width="3.69" stroke-linecap="round" fill="none"/>
<path d="M139.3 492.2 Q200.3 490.2 142.0 509.9" stroke="rgb(30,73,118)" stroke-width="2.10" stroke-linecap="round" fill="none"/>
<path d="M282.8 500.1 Q278.8 501.4 336.8 501.2" stroke="rgb(0,41,88)" stroke-width="2.07" stroke-linecap="round" fill="none"/>
<path d="M421.6 476.9 Q488.3 481.0 482.8 481.8" stroke="rgb(0,88,159)" stroke-width="3.99" stroke-linecap="round" fill="none"/>
<path d="M58.8 79.1 Q32.0 19.3 63.1 35.8" stroke="rgb(55,141,211)" stroke-width="10.84" stroke-linecap="round" fill="none"/>
<path d="M185.2 70.8 Q231.7 52.9 211.6 39.4" stroke="rgb(114,188,228)" stroke-width="4.15" stroke-linecap="round" fill="none"/>
<path d="M477.2 77.1 Q508.4 22.0 499.9 24.0" stroke="rgb(177,216,231)" stroke-width="6.69" stroke-linecap="round" fill="none"/>
<path d="M43.5 194.0 Q39.1 232.4 69.7 201.5" stroke="rgb(202,206,202)" stroke-width="2.08" stroke-linecap="round" fill="none"/>
<path d="M212.7 217.5 Q199.6 190.7 215.1 178.4" stroke="rgb(136,196,222)" stroke-width="18.74" stroke-linecap="round" fill="none"/>
<path d="M354.4 215.2 Q336.8 199.7 365.4 185.7" stroke="rgb(196,215,209)" stroke-width="7.72" stroke-linecap="round" fill="none"/>
<path d="M27.3 339.9 Q85.9 337.2 42.2 354.7" stroke="rgb(62,121,187)" stroke-width="2.07" stroke-linecap="round" fill="none"/>
<path d="M206.6 313.8 Q202.3 373.7 215.8 339.5" stroke="rgb(49,94,120)" stroke-width="11.43" stroke-linecap="round" fill="none"/>
<path d="M517.7 325.0 Q458.9 339.7 519.1 368.3" stroke="rgb(52,110,164)" stroke-width="15.67" stroke-linecap="round" fill="none"/>
<path d="M40.0 498.4 Q82.4 492.1 74.2 519.3" stroke="rgb(2,33,76)" stroke-width="4.98" stroke-linecap="round" fill="none"/>
<path d="M312.8 496.4 Q334.7 498.3 384.3 496.4" stroke="rgb(0,33,91)" stroke-width="2.08" stroke-linecap="round" fill="none"/>
<path d="M492.0 484.1 Q457.8 504.2 500.0 501.1" stroke="rgb(0,64,137)" stroke-width="8.28" stroke-linecap="round" fill="none"/>
<path d="M101.2 65.9 Q114.8 64.8 108.5 70.9" stroke="rgb(118,180,208)" stroke-width="7.35" stroke-linecap="round" fill="none"/>
<path d="M241.0 22.2 Q227.3 69.1 251.3 62.2" stroke="rgb(108,188,231)" stroke-width="5.33" stroke-linecap="round" fill="none"/>
<path d="M363.6 63.2 Q373.5 69.0 390.1 47.2" stroke="rgb(223,226,227)" stroke-width="21.40" stroke-linecap="round" fill="none"/>
<path d="M99.1 222.8 Q57.3 168.0 105.2 207.2" stroke="rgb(177,205,201)" stroke-width="6.40" stroke-linecap="round" fill="none"/>
<path d="M216.4 200.5 Q271.0 235.2 235.6 206.5" stroke="rgb(206,219,206)" stroke-width="19.00" stroke-linecap="round" fill="none"/>
<path d="M378.6 196.7 Q364.3 203.2 404.2 211.9" stroke="rgb(225,221,201)" stroke-width="11.86" stroke-linecap="round" fill="none"/>
<path d="M78.9 355.4 Q82.2 351.4 115.5 352.2" stroke="rgb(8,85,135)" stroke-width="4.26" stroke-linecap="round" fill="none"/>
<path d="M215.9 355.1 Q272.7 353.0 243.8 357.5" stroke="rgb(82,91,115)" stroke-width="5.65" stroke-linecap="round" fill="none"/>
<path d="M369.5 354.8 Q410.5 354.0 371.1 358.3" stroke="rgb(24,140,175)" stroke-width="2.10" stroke-linecap="round" fill="none"/>
<path d="M70.9 507.0 Q127.1 514.3 95.9 492.2" stroke="rgb(7,45,71)" stroke-width="6.29" stroke-linecap="round" fill="none"/>
<path d="M393.3 514.1 Q383.1 486.4 415.5 487.2" stroke="rgb(0,57,121)" stroke-width="27.35" stroke-linecap="round" fill="none"/>
<path d="M128.2 65.4 Q93.3 61.6 160.1 52.3" stroke="rgb(100,167,209)" stroke-width="7.21" stroke-linecap="round" fill="none"/>
<path d="M266.2 38.8 Q310.3 34.4 278.4 45.1" stroke="rgb(182,211,224)" stroke-width="6.78" stroke-linecap="round" fill="none"/>
<path d="M404.8 54.4 Q436.7 65.6 421.2 31.2" stroke="rgb(173,216,234)" stroke-width="11.74" stroke-linecap="round" fill="none"/>
<path d="M107.9 192.1 Q125.4 184.1 142.6 195.2" stroke="rgb(200,215,200)" stroke-width="11.55" stroke-linecap="round" fill="none"/>
<path d="M261.2 203.5 Q262.4 195.2 310.2 203.9" stroke="rgb(207,224,209)" stroke-width="9.96" stroke-linecap="round" fill="none"/>
<path d="M401.8 188.3 Q446.2 195.0 439.1 202.0" stroke="rgb(154,195,212)" stroke-width="7.66" stroke-linecap="round" fill="none"/>
<path d="M92.9 345.8 Q156.8 352.5 137.3 357.8" stroke="rgb(64,121,157)" stroke-width="6.27" stroke-linecap="round" fill="none"/>
<path d="M238.4 352.5 Q284.3 319.7 266.4 371.5" stroke="rgb(23,118,159)" stroke-width="4.43" stroke-linecap="round" fill="none"/>
<path d="M411.4 331.1 Q448.9 332.1 431.3 361.4" stroke="rgb(30,109,162)" stroke-width="6.90" stroke-linecap="round" fill="none"/>
<path d="M102.1 483.5 Q146.7 493.9 143.9 488.7" stroke="rgb(2,60,117)" stroke-width="11.49" stroke-linecap="round" fill="none"/>
<path d="M239.5 494.0 Q243.4 498.8 284.1 494.8" stroke="rgb(4,81,143)" stroke-width="2.52" stroke-linecap="round" fill="none"/>
<path d="M399.2 489.7 Q456.9 491.2 399.6 489.9" stroke="rgb(1,70,132)" stroke-width="17.67" stroke-linecap="round" fill="none"/>
<path d="M0.1 97.4 Q45.5 63.2 23.5 108.3" stroke="rgb(84,132,177)" stroke-width="6.03" stroke-linecap="round" fill="none"/>
<path d="M167.1 72.8 Q128.8 82.3 178.3 115.4" stroke="rgb(61,159,227)" stroke-width="10.02" stroke-linecap="round" fill="none"/>
<path d="M303.4 113.9 Q275.4 100.9 325.9 79.4" stroke="rgb(204,222,231)" stroke-width="13.23" stroke-linecap="round" fill="none"/>
<path d="M437.4 107.6 Q485.9 74.0 474.7 69.3" stroke="rgb(201,218,225)" stroke-width="5.27" stroke-linecap="round" fill="none"/>
<path d="M7.1 251.8 Q-14.9 260.4 18.7 243.8" stroke="rgb(119,187,208)" stroke-width="11.04" stroke-linecap="round" fill="none"/>
<path d="M150.3 249.5 Q141.8 213.8 162.3 261.1" stroke="rgb(172,171,173)" stroke-width="5.53" stroke-linecap="round" fill="none"/>
<path d="M287.9 239.1 Q337.9 251.6 311.5 237.5" stroke="rgb(200,201,186)" stroke-width="10.85" stroke-linecap="round" fill="none"/>
<path d="M458.0 246.3 Q440.0 250.9 467.2 242.6" stroke="rgb(176,181,185)" stroke-width="15.52" stroke-linecap="round" fill="none"/>
<path d="M15.7 360.9 Q-18.2 390.0 20.3 387.7" stroke="rgb(7,77,135)" stroke-width="14.85" stroke-linecap="round" fill="none"/>
<path d="M164.4 379.4 Q194.1 365.0 168.8 398.5" stroke="rgb(42,76,106)" stroke-width="3.71" stroke-linecap="round" fill="none"/>
<path d="M320.0 381.3 Q321.8 413.3 324.8 354.0" stroke="rgb(29,90,131)" stroke-width="11.65" stroke-linecap="round" fill="none"/>
<path d="M457.4 395.1 Q494.0 406.9 466.4 373.7" stroke="rgb(1,72,141)" stroke-width="24.90" stroke-linecap="round" fill="none"/>
<path d="M36.3 113.1 Q60.3 104.3 77.1 87.4" stroke="rgb(91,165,215)" stroke-width="11.68" stroke-linecap="round" fill="none"/>
<path d="M189.9 85.8 Q220.3 108.7 193.9 93.3" stroke="rgb(81,167,229)" stroke-width="8.17" stroke-linecap="round" fill="none"/>
<path d="M350.1 102.6 Q351.4 100.1 352.9 58.0" stroke="rgb(189,223,232)" stroke-width="12.34" stroke-linecap="round" fill="none"/>
<path d="M497.7 111.5 Q497.2 104.6 503.2 75.0" stroke="rgb(140,209,231)" stroke-width="10.88" stroke-linecap="round" fill="none"/>
<path d="M29.1 232.1 Q90.3 257.4 64.9 260.9" stroke="rgb(119,161,190)" stroke-width="8.44" stroke-linecap="round" fill="none"/>
<path d="M183.3 253.1 Q235.6 268.3 206.0 225.2" stroke="rgb(180,195,198)" stroke-width="5.11" stroke-linecap="round" fill="none"/>
<path d="M479.6 253.0 Q475.1 226.9 505.9 235.8" stroke="rgb(91,168,207)" stroke-width="7.59" stroke-linecap="round" fill="none"/>
<path d="M50.5 385.2 Q39.4 379.9 84.4 382.1" stroke="rgb(1,56,123)" stroke-width="5.67" stroke-linecap="round" fill="none"/>
<path d="M171.5 381.0 Q228.9 394.3 197.0 375.8" stroke="rgb(28,46,76)" stroke-width="2.07" stroke-linecap="round" fill="none"/>
<path d="M321.0 375.2 Q383.9 374.3 381.6 378.7" stroke="rgb(10,55,101)" stroke-width="2.16" stroke-linecap="round" fill="none"/>
<path d="M484.3 390.3 Q458.5 376.1 516.1 381.1" stroke="rgb(1,64,141)" stroke-width="25.37" stroke-linecap="round" fill="none"/>
<path d="M62.2 83.6 Q117.2 106.3 90.5 76.3" stroke="rgb(71,152,214)" stroke-width="7.36" stroke-linecap="round" fill="none"/>
<path d="M234.4 87.8 Q273.9 94.3 243.0 97.5" stroke="rgb(120,188,230)" stroke-width="8.57" stroke-linecap="round" fill="none"/>
<path d="M358.5 90.1 Q393.6 71.4 393.0 85.7" stroke="rgb(212,219,222)" stroke-width="20.70" stroke-linecap="round" fill="none"/>
<path d="M73.1 217.1 Q58.7 249.5 115.7 230.8" stroke="rgb(143,180,195)" stroke-width="11.32" stroke-linecap="round" fill="none"/>
<path d="M244.8 232.6 Q239.5 253.8 255.9 245.0" stroke="rgb(168,202,205)" stroke-width="8.66" stroke-linecap="round" fill="none"/>
<path d="M347.7 244.2 Q373.1 245.6 418.3 248.9" stroke="rgb(169,183,179)" stroke-width="10.03" stroke-linecap="round" fill="none"/>
<path d="M94.0 364.3 Q57.3 385.5 96.3 383.9" stroke="rgb(18,81,134)" stroke-width="6.84" stroke-linecap="round" fill="none"/>
<path d="M232.8 368.6 Q228.5 393.3 273.0 384.5" stroke="rgb(8,79,120)" stroke-width="2.28" stroke-linecap="round" fill="none"/>
<path d="M363.4 368.4 Q405.6 374.7 395.8 372.5" stroke="rgb(4,64,113)" stroke-width="10.68" stroke-linecap="round" fill="none"/>
<path d="M101.8 92.9 Q156.3 92.3 126.5 106.9" stroke="rgb(56,145,212)" stroke-width="3.85" stroke-linecap="round" fill="none"/>
<path d="M270.4 115.3 Q247.4 91.0 278.4 97.2" stroke="rgb(170,202,223)" stroke-width="12.57" stroke-linecap="round" fill="none"/>
<path d="M406.7 98.8 Q408.0 96.5 419.9 114.8" stroke="rgb(181,206,224)" stroke-width="10.00" stroke-linecap="round" fill="none"/>
<path d="M92.6 256.0 Q100.2 226.9 134.0 267.3" stroke="rgb(193,181,171)" stroke-width="5.70" stroke-linecap="round" fill="none"/>
<path d="M254.3 248.1 Q262.6 250.1 300.3 257.3" stroke="rgb(161,181,197)" stroke-width="3.68" stroke-linecap="round" fill="none"/>
<path d="M408.2 238.8 Q395.4 258.7 448.4 257.0" stroke="rgb(171,177,173)" stroke-width="6.10" stroke-linecap="round" fill="none"/>
<path d="M119.3 393.0 Q96.4 403.0 155.2 399.9" stroke="rgb(27,75,124)" stroke-width="2.07" stroke-linecap="round" fill="none"/>
<path d="M252.0 366.4 Q274.8 389.8 297.5 394.0" stroke="rgb(5,82,127)" stroke-width="7.90" stroke-linecap="round" fill="none"/>
<path d="M405.7 367.9 Q438.6 382.1 418.2 389.0" stroke="rgb(3,77,129)" stroke-width="13.72" stroke-linecap="round" fill="none"/>
<path d="M-3.0 130.0 Q-1.8 163.2 14.0 118.1" stroke="rgb(151,176,192)" stroke-width="2.18" stroke-linecap="round" fill="none"/>
<path d="M151.0 129.8 Q181.7 127.2 176.4 94.1" stroke="rgb(130,187,222)" stroke-width="10.02" stroke-linecap="round" fill="none"/>
<path d="M282.9 145.2 Q312.3 127.3 322.3 126.0" stroke="rgb(186,218,238)" stroke-width="14.23" stroke-linecap="round" fill="none"/>
<path d="M451.2 132.1 Q477.7 149.4 470.2 134.2" stroke="rgb(164,214,222)" stroke-width="8.37" stroke-linecap="round" fill="none"/>
<path d="M31.8 241.0 Q11.6 285.3 51.2 270.1" stroke="rgb(113,175,202)" stroke-width="9.71" stroke-linecap="round" fill="none"/>
<path d="M135.9 271.1 Q165.6 275.9 166.7 268.5" stroke="rgb(157,146,146)" stroke-width="8.62" stroke-linecap="round" fill="none"/>
<path d="M450.0 261.9 Q420.9 255.7 452.4 267.9" stroke="rgb(81,146,197)" stroke-width="11.36" stroke-linecap="round" fill="none"/>
<path d="M-16.6 418.5 Q32.4 422.0 13.0 414.4" stroke="rgb(5,42,86)" stroke-width="17.26" stroke-linecap="round" fill="none"/>
<path d="M145.2 414.2 Q160.8 413.7 172.1 415.8" stroke="rgb(8,40,73)" stroke-width="4.76" stroke-linecap="round" fill="none"/>
<path d="M275.2 416.7 Q276.3 417.8 342.2 415.9" stroke="rgb(0,16,78)" stroke-width="5.79" stroke-linecap="round" fill="none"/>
<path d="M465.0 403.8 Q491.6 427.3 482.0 415.7" stroke="rgb(1,83,167)" stroke-width="12.54" stroke-linecap="round" fill="none"/>
<path d="M39.9 122.3 Q39.2 163.3 58.0 123.6" stroke="rgb(121,186,213)" stroke-width="8.96" stroke-linecap="round" fill="none"/>
<path d="M209.9 126.6 Q166.7 138.4 211.0 117.0" stroke="rgb(144,196,227)" stroke-width="5.48" stroke-linecap="round" fill="none"/>
<path d="M333.1 144.1 Q346.2 119.3 361.4 134.4" stroke="rgb(221,224,229)" stroke-width="9.66" stroke-linecap="round" fill="none"/>
<path d="M493.2 131.8 Q497.5 148.4 506.9 121.3" stroke="rgb(112,197,227)" stroke-width="5.49" stroke-linecap="round" fill="none"/>
<path d="M61.7 281.3 Q49.3 303.9 77.0 278.1" stroke="rgb(71,134,173)" stroke-width="9.93" stroke-linecap="round" fill="none"/>
<path d="M346.4 274.4 Q311.6 277.8 356.2 295.0" stroke="rgb(109,146,181)" stroke-width="2.20" stroke-linecap="round" fill="none"/>
<path d="M488.1 281.5 Q528.8 281.7 512.8 282.3" stroke="rgb(133,143,161)" stroke-width="20.38" stroke-linecap="round" fill="none"/>
<path d="M38.9 404.5 Q51.6 413.6 64.8 420.5" stroke="rgb(3,54,112)" stroke-width="21.37" stroke-linecap="round" fill="none"/>
<path d="M169.4 424.9 Q237.0 412.1 188.0 402.7" stroke="rgb(7,45,88)" stroke-width="2.13" stroke-linecap="round" fill="none"/>
<path d="M311.5 412.2 Q379.2 413.7 347.9 413.8" stroke="rgb(2,114,174)" stroke-width="8.05" stroke-linecap="round" fill="none"/>
<path d="M467.6 424.3 Q485.9 425.6 525.0 422.4" stroke="rgb(0,78,147)" stroke-width="11.32" stroke-linecap="round" fill="none"/>
<path d="M83.9 119.1 Q92.0 127.2 106.9 125.6" stroke="rgb(70,162,225)" stroke-width="16.38" stroke-linecap="round" fill="none"/>
<path d="M224.6 133.1 Q202.8 147.3 247.3 138.7" stroke="rgb(121,196,234)" stroke-width="10.10" stroke-linecap="round" fill="none"/>
<path d="M367.7 130.5 Q351.6 131.7 412.2 143.9" stroke="rgb(170,220,238)" stroke-width="5.28" stroke-linecap="round" fill="none"/>
<path d="M86.8 263.7 Q127.7 272.1 88.8 270.5" stroke="rgb(90,126,153)" stroke-width="5.53" stroke-linecap="round" fill="none"/>
<path d="M240.6 253.2 Q201.9 280.9 260.7 274.7" stroke="rgb(131,145,159)" stroke-width="6.73" stroke-linecap="round" fill="none"/>
<path d="M382.7 268.6 Q403.4 265.9 388.9 277.2" stroke="rgb(86,146,183)" stroke-width="11.23" stroke-linecap="round" fill="none"/>
<path d="M87.6 401.4 Q55.2 419.9 99.3 424.5" stroke="rgb(4,53,108)" stroke-width="12.51" stroke-linecap="round" fill="none"/>
<path d="M226.8 413.1 Q256.3 415.6 242.9 414.5" stroke="rgb(4,27,71)" stroke-width="7.96" stroke-linecap="round" fill="none"/>
<path d="M132.8 132.2 Q116.5 110.5 146.7 126.6" stroke="rgb(70,158,220)" stroke-width="3.75" stroke-linecap="round" fill="none"/>
<path d="M261.6 110.2 Q262.5 154.7 271.7 108.0" stroke="rgb(156,207,232)" stroke-width="18.50" stroke-linecap="round" fill="none"/>
<path d="M420.2 138.5 Q401.4 125.8 429.6 117.2" stroke="rgb(150,199,227)" stroke-width="7.26" stroke-linecap="round" fill="none"/>
<path d="M120.5 267.2 Q129.7 300.2 127.2 287.7" stroke="rgb(127,125,134)" stroke-width="11.58" stroke-linecap="round" fill="none"/>
<path d="M261.0 251.7 Q310.0 290.8 284.8 275.2" stroke="rgb(123,147,166)" stroke-width="7.12" stroke-linecap="round" fill="none"/>
<path d="M451.2 277.5 Q387.8 255.9 455.9 265.0" stroke="rgb(103,137,175)" stroke-width="3.42" stroke-linecap="round" fill="none"/>
<path d="M97.9 418.1 Q104.6 411.1 141.2 439.6" stroke="rgb(4,56,103)" stroke-width="10.20" stroke-linecap="round" fill="none"/>
<path d="M268.7 416.8 Q253.6 418.0 310.7 417.5" stroke="rgb(0,77,151)" stroke-width="5.75" stroke-linecap="round" fill="none"/>
<path d="M397.5 409.3 Q408.3 413.5 436.9 400.5" stroke="rgb(0,84,141)" stroke-width="7.68" stroke-linecap="round" fill="none"/>
</svg>